<?xml version="1.0" encoding="utf-8"?>
<!-- Generator: Adobe Illustrator 25.0.1, SVG Export Plug-In . SVG Version: 6.00 Build 0)  -->
<svg version="1.1"
	 id="svg3611" sodipodi:docname="Indian_Rupee_symbol.svg" xmlns:cc="http://creativecommons.org/ns#" xmlns:dc="http://purl.org/dc/elements/1.1/" xmlns:inkscape="http://www.inkscape.org/namespaces/inkscape" xmlns:ns1="http://sozi.baierouge.fr" xmlns:rdf="http://www.w3.org/1999/02/22-rdf-syntax-ns#" xmlns:sodipodi="http://sodipodi.sourceforge.net/DTD/sodipodi-0.dtd" xmlns:svg="http://www.w3.org/2000/svg"
	 xmlns="http://www.w3.org/2000/svg" xmlns:xlink="http://www.w3.org/1999/xlink" x="0px" y="0px" viewBox="0 0 169.8 250.4"
	 style="enable-background:new 0 0 169.8 250.4;" xml:space="preserve">
<style type="text/css">
	.st0{fill:#A0BCBC;stroke:#000000;stroke-width:9.908400e-02;}
</style>
<sodipodi:namedview  bordercolor="#666666" borderopacity="1.0" id="base" inkscape:current-layer="layer1" inkscape:cx="94.062924" inkscape:cy="212.24797" inkscape:document-units="px" inkscape:pageopacity="0.0" inkscape:pageshadow="2" inkscape:window-height="712" inkscape:window-maximized="1" inkscape:window-width="1280" inkscape:window-x="-4" inkscape:window-y="-4" inkscape:zoom="5.3091607" pagecolor="#ffffff" showgrid="false">
	</sodipodi:namedview>
<g id="layer1" transform="translate(0 -801.97)" inkscape:groupmode="layer" inkscape:label="Layer 1">
	<path id="path4158" sodipodi:nodetypes="cccccccccccccccccccc" class="st0" d="M99,1052.3L8.4,939L9,916.5
		c42.5,2.9,75.6-1.6,83.2-41.8l-90.6-0.5l14.7-24.5l72.3,1c-11-22.9-41.3-25.7-88.5-24l16.2-24l153.4-0.2l-15.2,23.7h-42.4
		c7.8,8.2,13.4,17.6,13.6,25.6l44-0.5l-15.2,23.5l-29.3,0.5c-4.6,35.1-36.8,55.8-77.5,60.6l91.2,116.4L99,1052.3L99,1052.3
		L99,1052.3z"/>
</g>
</svg>
